<svg width="285" height="280" viewBox="0 0 285 280" fill="none" xmlns="http://www.w3.org/2000/svg">
<path d="M216.805 259.244L97.454 248.477C94.1709 248.188 91.7568 245.291 92.0465 241.959L106.338 83.4038C106.627 80.1207 109.524 77.7068 112.856 77.9965L232.207 88.7631C235.49 89.0528 237.904 91.9496 237.614 95.281L223.323 253.837C223.033 257.12 220.137 259.534 216.805 259.244Z" fill="#CCCDEB"/>
<path d="M186.533 247.029L71.2857 279.764C68.0991 280.681 64.816 278.847 63.8987 275.66L20.349 122.512C19.4317 119.325 21.3146 116.042 24.4529 115.125L139.7 82.3901C142.887 81.4728 146.17 83.3558 147.087 86.4941L190.637 239.642C191.554 242.829 189.72 246.112 186.533 247.029Z" fill="#D6D7F0"/>
<path d="M251.954 171.227C265.521 165.965 272.184 150.563 266.873 136.851C261.562 123.139 246.209 116.283 232.641 121.546C219.074 126.809 212.412 142.21 217.723 155.922C223.034 169.682 238.387 176.538 251.954 171.227Z" fill="#0D3344"/>
<path d="M280.874 137.286L253.644 147.908C250.844 148.97 247.657 147.57 246.546 144.77L246.498 144.721C245.436 141.921 246.836 138.735 249.636 137.624L276.915 127.002C279.716 125.94 282.902 127.34 284.013 130.141L284.061 130.189C285.075 133.037 283.675 136.224 280.874 137.286Z" fill="#0D3344"/>
<path d="M249.492 164.951C259.631 160.992 264.604 149.501 260.596 139.265C256.589 129.03 245.195 123.912 235.056 127.823C224.916 131.782 219.943 143.273 223.951 153.508C227.958 163.792 239.353 168.91 249.492 164.951Z" fill="#D4BFA9"/>
<path d="M233.414 153.653C232.497 152.784 231.821 151.577 232.207 150.274C232.593 148.97 233.8 148.584 235.056 148.535C237.566 148.487 240.704 149.115 242.298 146.556C243.746 144.287 242.491 141.68 241.429 139.555C240.849 138.493 240.173 137.238 240.511 135.982C240.849 134.679 242.346 134.437 243.505 134.534C245.001 134.679 245.001 132.313 243.456 132.168C240.415 131.878 237.808 133.955 238.049 137.093C238.194 138.831 239.111 140.279 239.884 141.776C240.415 142.838 241.042 144.625 239.98 145.59C238.87 146.604 236.842 146.17 235.49 146.17C233.897 146.121 232.255 146.411 231.096 147.57C228.827 149.839 229.6 153.315 231.724 155.343C232.883 156.405 234.524 154.715 233.414 153.653Z" fill="#EBDBCD"/>
<path d="M241.477 159.254C239.787 156.984 243.698 155.488 245.195 154.957C247.222 154.232 250.119 153.653 251.375 151.673C252.485 149.887 251.906 147.666 251.182 145.88C250.312 143.707 249.83 141.631 251.616 139.796C252.678 138.734 250.988 137.092 249.878 138.155C248.188 139.796 247.56 142.21 248.14 144.528C248.623 146.363 250.94 149.694 248.574 151.143C247.416 151.818 245.967 152.156 244.712 152.639C243.457 153.122 242.105 153.556 240.994 154.329C239.063 155.681 237.856 158.433 239.401 160.509C240.318 161.668 242.346 160.461 241.477 159.254Z" fill="#EBDBCD"/>
<path d="M206.859 226.123L88.0876 242.153C84.8045 242.636 81.8111 240.318 81.3765 237.035L60.0845 79.2518C59.65 75.9687 61.9192 72.9753 65.2023 72.5408L183.926 56.5115C187.209 56.077 190.202 58.346 190.637 61.6292L211.929 219.412C212.412 222.647 210.143 225.689 206.859 226.123Z" fill="#E8E8F7"/>
<path d="M97.261 126.036C103.924 126.036 109.331 120.629 109.331 113.966C109.331 107.303 103.924 101.896 97.261 101.896C90.5982 101.896 85.1907 107.303 85.1907 113.966C85.1907 120.629 90.5982 126.036 97.261 126.036Z" fill="white"/>
<path d="M102.62 165.869C109.283 165.869 114.69 160.461 114.69 153.798C114.69 147.135 109.283 141.728 102.62 141.728C95.9573 141.728 90.5498 147.135 90.5498 153.798C90.5981 160.461 95.9573 165.869 102.62 165.869Z" fill="white"/>
<path d="M108.028 205.7C114.691 205.7 120.098 200.293 120.098 193.63C120.098 186.967 114.691 181.56 108.028 181.56C101.365 181.56 95.9574 186.967 95.9574 193.63C95.9574 200.341 101.365 205.7 108.028 205.7Z" fill="white"/>
<path d="M172.676 101.509L123.767 108.124C122.078 108.317 120.581 107.158 120.339 105.517C120.146 103.827 121.305 102.33 122.947 102.089L171.855 95.4741C173.497 95.281 175.042 96.4397 175.283 98.0812C175.525 99.7711 174.318 101.316 172.676 101.509Z" fill="#D6D7F0"/>
<path d="M157.13 114.304L125.167 118.601C123.526 118.794 121.981 117.635 121.74 115.994C121.546 114.304 122.705 112.807 124.347 112.566L156.309 108.269C157.95 108.076 159.495 109.234 159.737 110.876C159.978 112.517 158.771 114.063 157.13 114.304Z" fill="#D6D7F0"/>
<path d="M183.443 181.222L134.534 187.836C132.892 188.029 131.347 186.871 131.106 185.229C130.913 183.587 132.072 182.043 133.713 181.801L182.622 175.187C184.264 174.993 185.809 176.152 186.05 177.794C186.291 179.484 185.133 180.98 183.443 181.222Z" fill="#D6D7F0"/>
<path d="M167.896 193.968L135.934 198.265C134.293 198.458 132.748 197.3 132.506 195.658C132.313 194.016 133.472 192.423 135.113 192.23L167.076 187.933C168.717 187.74 170.262 188.899 170.504 190.54C170.745 192.182 169.586 193.775 167.896 193.968Z" fill="#D6D7F0"/>
<path d="M178.084 141.39L129.175 148.004C127.533 148.198 125.988 147.039 125.747 145.397C125.554 143.755 126.713 142.211 128.354 141.969L177.263 135.355C178.905 135.162 180.45 136.32 180.691 137.962C180.884 139.603 179.725 141.148 178.084 141.39Z" fill="#D6D7F0"/>
<path d="M162.537 154.136L130.575 158.433C128.933 158.626 127.388 157.467 127.147 155.826C126.954 154.184 128.113 152.639 129.754 152.398L161.716 148.101C163.358 147.908 164.903 149.066 165.144 150.708C165.337 152.349 164.179 153.894 162.537 154.136Z" fill="#D6D7F0"/>
<path d="M103.634 88.9079C100.979 94.412 98.6612 100.061 96.6334 105.758C94.9918 103.634 92.9157 102.089 90.3568 101.992C89.0532 101.944 87.3634 102.234 86.6392 103.537C86.4943 103.73 86.3978 103.972 86.2529 104.213C85.4322 105.613 85.1907 107.883 86.8806 108.848C88.1842 109.621 89.4395 110.055 90.4534 111.214C91.9501 112.904 93.0123 115.028 93.9296 117.008C95.5712 120.532 100.544 119.711 101.268 116.042C102.91 107.448 105.083 98.9504 107.69 90.5977C108.462 87.894 104.889 86.349 103.634 88.9079Z" fill="#49A0EB"/>
<path d="M185.181 4.41583L181.174 0.843069C179.822 -0.363961 177.698 -0.267399 176.491 1.08448L118.408 65.5882L127.292 73.603L185.471 9.09921C186.678 7.74733 186.581 5.62286 185.181 4.41583Z" fill="#49A0EB"/>
<path d="M127.244 73.6031L118.312 65.5884L110.876 80.9417L112.711 82.6316L127.244 73.6031Z" fill="#EBDBCD"/>
<path d="M115.656 74.7135L116.477 76.5964L117.78 77.1759L118.746 78.8657L112.711 82.5835L110.876 80.9417L113.87 74.7618L115.656 74.7135Z" fill="#49A0EB"/>
<path d="M106.531 214.294C106.628 214.294 106.676 214.294 106.772 214.294C107.11 214.391 107.255 214.777 107.159 215.019C106.772 216.129 106.241 217.24 105.614 218.254C105.469 218.543 105.083 218.64 104.793 218.447C104.503 218.302 104.407 217.915 104.6 217.626C105.179 216.708 105.662 215.646 106.048 214.632C106.145 214.439 106.338 214.294 106.531 214.294Z" fill="#110580"/>
<path d="M10.4514 185.712C10.548 185.712 10.5962 185.712 10.6445 185.76L11.5136 186.001C13.4448 186.581 15.4726 187.16 17.5487 187.836C17.8867 187.933 18.0315 188.271 17.935 188.56C17.8384 188.898 17.5004 189.043 17.2108 188.946C15.1347 188.271 13.1551 187.691 11.2239 187.112L10.3548 186.87C10.0169 186.774 9.87201 186.436 9.96858 186.146C10.0169 185.905 10.21 185.712 10.4514 185.712ZM24.0184 190.298C24.115 190.298 24.2115 190.298 24.2598 190.347C26.6256 191.36 28.75 192.423 30.7295 193.63C31.0192 193.775 31.1157 194.161 30.9226 194.45C30.7778 194.74 30.3915 194.837 30.1018 194.644C28.1706 193.533 26.0945 192.471 23.777 191.505C23.4873 191.36 23.3425 191.023 23.439 190.733C23.6321 190.443 23.8253 190.298 24.0184 190.298ZM36.2818 197.637C36.4267 197.637 36.6198 197.637 36.7164 197.782C38.5993 199.375 40.2409 201.162 41.6893 203.093C41.8825 203.334 41.8342 203.721 41.5928 203.914C41.3514 204.107 40.9651 204.058 40.772 203.817C39.3718 201.934 37.7786 200.244 35.9439 198.699C35.7025 198.458 35.6542 198.12 35.8956 197.879C35.9922 197.685 36.137 197.637 36.2818 197.637ZM44.8276 208.983C45.069 208.935 45.3104 209.08 45.407 209.321C46.4209 211.542 47.2417 213.86 47.7245 216.225C47.8211 216.563 47.5796 216.853 47.29 216.95C46.952 217.046 46.6623 216.805 46.5657 216.515C46.0829 214.246 45.3104 212.025 44.2965 209.852C44.1517 209.562 44.2965 209.225 44.5862 209.08C44.7311 208.983 44.7793 208.983 44.8276 208.983ZM41.5445 216.853C42.8481 216.756 44.2 216.756 45.5518 216.853C45.8898 216.853 46.1312 217.143 46.1312 217.481C46.0829 217.819 45.8415 218.012 45.5035 218.012C44.1999 217.915 42.8964 217.915 41.6893 218.06C40.6272 218.157 39.565 218.302 38.5511 218.495C38.2131 218.543 37.9234 218.35 37.8751 218.06C37.7786 217.77 38.02 217.432 38.3097 217.336C39.2753 217.094 40.3857 216.949 41.5445 216.853ZM52.5043 218.06C52.5526 218.06 52.6492 218.06 52.6975 218.108C54.7253 218.639 56.8496 219.364 59.5534 220.378C59.8914 220.474 59.9879 220.812 59.8913 221.15C59.7948 221.488 59.4568 221.633 59.1189 221.488C56.4634 220.474 54.339 219.75 52.3595 219.219C52.0215 219.122 51.8767 218.833 51.9249 218.495C52.0215 218.253 52.2629 218.108 52.5043 218.06ZM31.6951 219.943C31.8882 219.895 32.1296 220.04 32.2262 220.185C32.4193 220.474 32.3228 220.812 32.0331 221.005C31.0192 221.681 30.0535 222.454 29.2328 223.371C28.5085 224.143 27.9292 225.013 27.3981 225.978C27.2532 226.268 26.9153 226.365 26.6256 226.22C26.3359 226.075 26.2393 225.737 26.3359 225.447C26.9153 224.385 27.5429 223.419 28.3637 222.55C29.2328 221.633 30.2467 220.764 31.3571 220.04C31.502 219.991 31.5986 219.943 31.6951 219.943ZM47.7728 222.888C47.821 222.888 47.8211 222.888 47.8693 222.888C48.2073 222.888 48.4487 223.178 48.4487 223.516C48.3521 226.123 47.821 228.537 46.952 230.661C46.8071 230.951 46.4692 231.096 46.1795 230.951C45.8898 230.806 45.745 230.468 45.8415 230.179C46.7106 228.103 47.1451 225.833 47.29 223.371C47.2417 223.129 47.4831 222.888 47.7728 222.888ZM65.9748 222.936C66.0714 222.936 66.1679 222.936 66.2162 222.985C66.9887 223.274 67.7612 223.612 68.582 223.854C70.127 224.385 71.5271 224.868 72.9273 225.302C73.2652 225.399 73.4101 225.737 73.3135 226.026C73.217 226.316 72.879 226.509 72.5893 226.413C71.1409 225.978 69.6924 225.544 68.1474 224.916C67.3749 224.626 66.5542 224.337 65.7817 223.999C65.492 223.902 65.3471 223.564 65.4437 223.226C65.5402 223.13 65.7334 222.936 65.9748 222.936ZM100.206 222.647C100.399 222.647 100.592 222.743 100.737 222.888C100.93 223.178 100.882 223.516 100.592 223.709C98.6612 225.109 96.4885 226.268 94.0745 227.089C93.7365 227.185 93.4468 227.04 93.3502 226.702C93.2537 226.413 93.3985 226.075 93.7365 225.978C96.0057 225.206 98.0818 224.143 99.9165 222.743C100.013 222.695 100.11 222.647 100.206 222.647ZM79.7349 226.896C79.7832 226.896 79.8315 226.896 79.8798 226.896C82.3421 227.282 84.7079 227.378 86.9288 227.282C87.2668 227.233 87.5565 227.523 87.5565 227.813C87.6048 228.103 87.3151 228.44 86.9771 228.44C84.6596 228.585 82.2455 228.441 79.6866 228.054C79.3487 228.006 79.1073 227.716 79.2038 227.378C79.2038 227.089 79.4452 226.896 79.7349 226.896ZM25.5634 232.062C25.9014 232.062 26.1428 232.303 26.1911 232.593C26.4325 234.572 27.2532 236.262 28.6051 237.421C28.8948 237.662 29.1845 237.904 29.5225 238.097C29.7639 238.29 29.8604 238.628 29.7156 238.918C29.5225 239.159 29.1845 239.255 28.8948 239.111C28.5086 238.869 28.1706 238.628 27.8809 238.338C26.3359 236.938 25.3703 235.055 25.0806 232.786C24.984 232.448 25.1772 232.158 25.5634 232.062C25.5151 232.062 25.5634 232.062 25.5634 232.062ZM42.317 235.779C42.5101 235.731 42.655 235.827 42.7998 235.972C42.9929 236.214 42.9929 236.6 42.7515 236.793C40.8685 238.483 38.5511 239.69 36.1853 240.221C35.8473 240.318 35.5576 240.076 35.4611 239.738C35.3645 239.449 35.6059 239.111 35.8956 239.014C38.0683 238.531 40.1926 237.421 41.9307 235.876C42.0756 235.779 42.2204 235.779 42.317 235.779Z" fill="#110580"/>
<path d="M0.553707 181.801C0.698551 181.801 0.843389 181.849 0.939951 181.946C1.61589 182.477 2.58151 183.008 3.83682 183.539C4.12651 183.684 4.27136 184.022 4.1748 184.312C4.02995 184.601 3.69197 184.746 3.40228 184.65C2.05041 184.07 0.988232 183.491 0.215733 182.912C-0.0256733 182.719 -0.0739604 182.332 0.119164 182.091C0.264008 181.849 0.408864 181.801 0.553707 181.801Z" fill="#110580"/>
</svg>
